# Blender v2.77 (sub 0) OBJ File: ''
# www.blender.org
mtllib planes.mtl
o Plane.004
v -1.000000 0.489246 1.000000
v 1.000000 0.489246 1.000000
v -1.000000 0.489246 -1.000000
v 1.000000 0.489246 -1.000000
vn 0.0000 1.0000 0.0000
g Plane.004_Plane.004_Material.004
usemtl Material.004
s off
f 2//1 3//1 1//1
f 2//1 4//1 3//1
o Plane.003
v -1.000000 1.083593 1.000000
v 1.000000 1.083593 1.000000
v -1.000000 1.083593 -1.000000
v 1.000000 1.083593 -1.000000
vn 0.0000 1.0000 0.0000
g Plane.003_Plane.003_Material.003
usemtl Material.003
s off
f 6//2 7//2 5//2
f 6//2 8//2 7//2
o Plane.002
v -1.000000 1.582081 1.000000
v 1.000000 1.582081 1.000000
v -1.000000 1.582081 -1.000000
v 1.000000 1.582081 -1.000000
vn 0.0000 1.0000 0.0000
g Plane.002_Plane.002_Material.002
usemtl Material.002
s off
f 10//3 11//3 9//3
f 10//3 12//3 11//3
o Plane.001
v -1.000000 2.084435 1.000000
v 1.000000 2.084435 1.000000
v -1.000000 2.084435 -1.000000
v 1.000000 2.084435 -1.000000
vn 0.0000 1.0000 0.0000
g Plane.001_Plane.001_Material.001
usemtl Material.001
s off
f 14//4 15//4 13//4
f 14//4 16//4 15//4
o Plane
v -1.000000 2.658980 1.000000
v 1.000000 2.658980 1.000000
v -1.000000 2.658980 -1.000000
v 1.000000 2.658980 -1.000000
vn 0.0000 1.0000 0.0000
g Plane_Plane_Material
usemtl Material
s off
f 18//5 19//5 17//5
f 18//5 20//5 19//5
